<?xml version="1.0" standalone="no"?>
<?xml-stylesheet href="light.css" type="text/css"?>
<!DOCTYPE svg PUBLIC "-//W3C//DTD SVG 1.1//EN" "http://www.w3.org/Graphics/SVG/1.1/DTD/svg11.dtd">
<svg xmlns="http://www.w3.org/2000/svg" class="railroad-diagram" width="516" height="62" viewBox="0 0 516 62"><g transform="translate(.5 .5)"><path d="M 20 21 v 20 m 0 -10 h 20.5"></path><g><path d="M40 31h0"></path><path d="M476 31h0"></path><path d="M40 31h20"></path><g><path d="M60 31h0"></path><path d="M456 31h0"></path><g class="non-terminal"><path d="M60 31h0"></path><path d="M186 31h0"></path><rect x="60" y="20" width="126" height="22" rx="8" ry="8"></rect><text x="123" y="35">sortkey_name</text></g><path d="M186 31h10"></path><path d="M196 31h10"></path><g class="terminal"><path d="M206 31h0"></path><path d="M284 31h0"></path><rect x="206" y="20" width="78" height="22" rx="0" ry="0"></rect><text x="245" y="35">BEGINS</text></g><path d="M284 31h10"></path><path d="M294 31h10"></path><g class="terminal"><path d="M304 31h0"></path><path d="M366 31h0"></path><rect x="304" y="20" width="62" height="22" rx="0" ry="0"></rect><text x="335" y="35">WITH</text></g><path d="M366 31h10"></path><path d="M376 31h10"></path><g class="non-terminal"><path d="M386 31h0"></path><path d="M456 31h0"></path><rect x="386" y="20" width="70" height="22" rx="8" ry="8"></rect><text x="421" y="35">value</text></g></g><path d="M456 31h20"></path></g><path d="M 476 31 h 20 m 0 -10 v 20"></path></g></svg>