<?xml version="1.0" standalone="no"?>
<?xml-stylesheet href="light.css" type="text/css"?>
<!DOCTYPE svg PUBLIC "-//W3C//DTD SVG 1.1//EN" "http://www.w3.org/Graphics/SVG/1.1/DTD/svg11.dtd">
<svg xmlns="http://www.w3.org/2000/svg" class="railroad-diagram" width="710" height="62" viewBox="0 0 710 62"><g transform="translate(.5 .5)"><path d="M 20 21 v 20 m 0 -10 h 20.5"></path><g><path d="M40 31h0"></path><path d="M670 31h0"></path><path d="M40 31h20"></path><g><path d="M60 31h0"></path><path d="M650 31h0"></path><g class="non-terminal"><path d="M60 31h0"></path><path d="M186 31h0"></path><rect x="60" y="20" width="126" height="22" rx="8" ry="8"></rect><text x="123" y="35">sortkey_name</text></g><path d="M186 31h10"></path><path d="M196 31h10"></path><g class="terminal"><path d="M206 31h0"></path><path d="M292 31h0"></path><rect x="206" y="20" width="86" height="22" rx="0" ry="0"></rect><text x="249" y="35">BETWEEN</text></g><path d="M292 31h10"></path><path d="M302 31h10"></path><g class="non-terminal"><path d="M312 31h0"></path><path d="M430 31h0"></path><rect x="312" y="20" width="118" height="22" rx="8" ry="8"></rect><text x="371" y="35">first_value</text></g><path d="M430 31h10"></path><path d="M440 31h10"></path><g class="terminal"><path d="M450 31h0"></path><path d="M504 31h0"></path><rect x="450" y="20" width="54" height="22" rx="0" ry="0"></rect><text x="477" y="35">AND</text></g><path d="M504 31h10"></path><path d="M514 31h10"></path><g class="non-terminal"><path d="M524 31h0"></path><path d="M650 31h0"></path><rect x="524" y="20" width="126" height="22" rx="8" ry="8"></rect><text x="587" y="35">second_value</text></g></g><path d="M650 31h20"></path></g><path d="M 670 31 h 20 m 0 -10 v 20"></path></g></svg>