<?xml version="1.0" standalone="no"?>
<?xml-stylesheet href="light.css" type="text/css"?>
<!DOCTYPE svg PUBLIC "-//W3C//DTD SVG 1.1//EN" "http://www.w3.org/Graphics/SVG/1.1/DTD/svg11.dtd">
<svg xmlns="http://www.w3.org/2000/svg" class="railroad-diagram" width="702" height="62" viewBox="0 0 702 62"><g transform="translate(.5 .5)"><path d="M 20 21 v 20 m 0 -10 h 20.5"></path><g><path d="M40 31h0"></path><path d="M662 31h0"></path><path d="M40 31h20"></path><g><path d="M60 31h0"></path><path d="M642 31h0"></path><g class="non-terminal"><path d="M60 31h0"></path><path d="M178 31h0"></path><rect x="60" y="20" width="118" height="22" rx="8" ry="8"></rect><text x="119" y="35">filter_name</text></g><path d="M178 31h10"></path><path d="M188 31h10"></path><g class="terminal"><path d="M198 31h0"></path><path d="M284 31h0"></path><rect x="198" y="20" width="86" height="22" rx="0" ry="0"></rect><text x="241" y="35">BETWEEN</text></g><path d="M284 31h10"></path><path d="M294 31h10"></path><g class="non-terminal"><path d="M304 31h0"></path><path d="M422 31h0"></path><rect x="304" y="20" width="118" height="22" rx="8" ry="8"></rect><text x="363" y="35">first_value</text></g><path d="M422 31h10"></path><path d="M432 31h10"></path><g class="terminal"><path d="M442 31h0"></path><path d="M496 31h0"></path><rect x="442" y="20" width="54" height="22" rx="0" ry="0"></rect><text x="469" y="35">AND</text></g><path d="M496 31h10"></path><path d="M506 31h10"></path><g class="non-terminal"><path d="M516 31h0"></path><path d="M642 31h0"></path><rect x="516" y="20" width="126" height="22" rx="8" ry="8"></rect><text x="579" y="35">second_value</text></g></g><path d="M642 31h20"></path></g><path d="M 662 31 h 20 m 0 -10 v 20"></path></g></svg>