<?xml version="1.0" standalone="no"?>
<?xml-stylesheet href="light.css" type="text/css"?>
<!DOCTYPE svg PUBLIC "-//W3C//DTD SVG 1.1//EN" "http://www.w3.org/Graphics/SVG/1.1/DTD/svg11.dtd">
<svg xmlns="http://www.w3.org/2000/svg" class="railroad-diagram" width="1862" height="156" viewBox="0 0 1862 156"><g transform="translate(.5 .5)"><path d="M 20 69 v 20 m 0 -10 h 20.5"></path><g><path d="M40 79h0"></path><path d="M1822 79h0"></path><path d="M40 79h20"></path><g><path d="M60 79h0"></path><path d="M1802 79h0"></path><g class="terminal"><path d="M60 79h0"></path><path d="M138 79h0"></path><rect x="60" y="68" width="78" height="22" rx="0" ry="0"></rect><text x="99" y="83">REPORT</text></g><path d="M138 79h10"></path><path d="M148 79h10"></path><g class="non-terminal"><path d="M158 79h0"></path><path d="M276 79h0"></path><rect x="158" y="68" width="118" height="22" rx="8" ry="8"></rect><text x="217" y="83">report_name</text></g><path d="M276 79h10"></path><path d="M286 79h10"></path><g class="terminal"><path d="M296 79h0"></path><path d="M414 79h0"></path><rect x="296" y="68" width="118" height="22" rx="0" ry="0"></rect><text x="355" y="83">BEGIN_BLOCK</text></g><path d="M414 79h10"></path><path d="M424 79h10"></path><g class="non-terminal"><path d="M434 79h0"></path><path d="M592 79h0"></path><rect x="434" y="68" width="158" height="22" rx="8" ry="8"></rect><text x="513" y="83">select_statement</text></g><path d="M592 79h10"></path><path d="M602 79h10"></path><g class="terminal"><path d="M612 79h0"></path><path d="M674 79h0"></path><rect x="612" y="68" width="62" height="22" rx="0" ry="0"></rect><text x="643" y="83">FROM</text></g><path d="M674 79h10"></path><path d="M684 79h10"></path><g class="non-terminal"><path d="M694 79h0"></path><path d="M804 79h0"></path><rect x="694" y="68" width="110" height="22" rx="8" ry="8"></rect><text x="749" y="83">table_name</text></g><path d="M804 79h10"></path><g><path d="M814 79h0"></path><path d="M1036 79h0"></path><path d="M814 79h20"></path><g><path d="M834 79h16"></path><path d="M1000 79h16"></path><g class="non-terminal"><path d="M850 79h0"></path><path d="M1000 79h0"></path><rect x="850" y="68" width="150" height="22" rx="8" ry="8"></rect><text x="925" y="83">index_statement</text></g></g><path d="M1016 79h20"></path><path d="M814 79a10 10 0 0 1 10 10v26a10 10 0 0 0 10 10"></path><g><path d="M834 125h0"></path><path d="M1016 125h0"></path><g class="non-terminal"><path d="M834 125h0"></path><path d="M1016 125h0"></path><rect x="834" y="114" width="182" height="22" rx="8" ry="8"></rect><text x="925" y="129">partition_statement</text></g></g><path d="M1016 125a10 10 0 0 0 10 -10v-26a10 10 0 0 1 10 -10"></path></g><g><path d="M1036 79h0"></path><path d="M1690 79h0"></path><path d="M1036 79a10 10 0 0 0 10 -10v-39a10 10 0 0 1 10 -10"></path><g><path d="M1056 20h614"></path></g><path d="M1670 20a10 10 0 0 1 10 10v39a10 10 0 0 0 10 10"></path><path d="M1036 79h20"></path><g><path d="M1056 79h0"></path><path d="M1670 79h0"></path><path d="M1056 79h20"></path><g><path d="M1076 79h0"></path><path d="M1650 79h0"></path><g class="terminal"><path d="M1076 79h0"></path><path d="M1146 79h0"></path><rect x="1076" y="68" width="70" height="22" rx="0" ry="0"></rect><text x="1111" y="83">WHERE</text></g><path d="M1146 79h10"></path><path d="M1156 79h10"></path><g class="non-terminal"><path d="M1166 79h0"></path><path d="M1316 79h0"></path><rect x="1166" y="68" width="150" height="22" rx="8" ry="8"></rect><text x="1241" y="83">where_statement</text></g><path d="M1316 79h10"></path><g><path d="M1326 79h0"></path><path d="M1650 79h0"></path><path d="M1326 79a10 10 0 0 0 10 -10v-15a10 10 0 0 1 10 -10"></path><g><path d="M1346 44h284"></path></g><path d="M1630 44a10 10 0 0 1 10 10v15a10 10 0 0 0 10 10"></path><path d="M1326 79h20"></path><g><path d="M1346 79h0"></path><path d="M1630 79h0"></path><path d="M1346 79h10"></path><g><path d="M1356 79h0"></path><path d="M1620 79h0"></path><path d="M1356 79h20"></path><g><path d="M1376 79h0"></path><path d="M1600 79h0"></path><g class="terminal"><path d="M1376 79h0"></path><path d="M1430 79h0"></path><rect x="1376" y="68" width="54" height="22" rx="0" ry="0"></rect><text x="1403" y="83">AND</text></g><path d="M1430 79h10"></path><path d="M1440 79h10"></path><g class="non-terminal"><path d="M1450 79h0"></path><path d="M1600 79h0"></path><rect x="1450" y="68" width="150" height="22" rx="8" ry="8"></rect><text x="1525" y="83">where_statement</text></g></g><path d="M1600 79h20"></path></g><path d="M1620 79h10"></path><path d="M1356 79a10 10 0 0 0 -10 10v15a10 10 0 0 0 10 10"></path><g><path d="M1356 114h264"></path></g><path d="M1620 114a10 10 0 0 0 10 -10v-15a10 10 0 0 0 -10 -10"></path></g><path d="M1630 79h20"></path></g></g><path d="M1650 79h20"></path></g><path d="M1670 79h20"></path></g><path d="M1690 79h10"></path><g class="terminal"><path d="M1700 79h0"></path><path d="M1802 79h0"></path><rect x="1700" y="68" width="102" height="22" rx="0" ry="0"></rect><text x="1751" y="83">END_BLOCK</text></g></g><path d="M1802 79h20"></path></g><path d="M 1822 79 h 20 m 0 -10 v 20"></path></g></svg>