<?xml version="1.0" standalone="no"?>
<?xml-stylesheet href="light.css" type="text/css"?>
<!DOCTYPE svg PUBLIC "-//W3C//DTD SVG 1.1//EN" "http://www.w3.org/Graphics/SVG/1.1/DTD/svg11.dtd">
<svg xmlns="http://www.w3.org/2000/svg" class="railroad-diagram" width="440" height="108" viewBox="0 0 440 108"><g transform="translate(.5 .5)"><path d="M 20 21 v 20 m 0 -10 h 20.5"></path><g><path d="M40 31h0"></path><path d="M400 31h0"></path><path d="M40 31h20"></path><g><path d="M60 31h0"></path><path d="M380 31h0"></path><g class="non-terminal"><path d="M60 31h0"></path><path d="M178 31h0"></path><rect x="60" y="20" width="118" height="22" rx="8" ry="8"></rect><text x="119" y="35">filter_name</text></g><path d="M178 31h10"></path><g><path d="M188 31h0"></path><path d="M380 31h0"></path><path d="M188 31h20"></path><g><path d="M208 31h37"></path><path d="M323 31h37"></path><g class="terminal"><path d="M245 31h0"></path><path d="M323 31h0"></path><rect x="245" y="20" width="78" height="22" rx="0" ry="0"></rect><text x="284" y="35">EXISTS</text></g></g><path d="M360 31h20"></path><path d="M188 31a10 10 0 0 1 10 10v26a10 10 0 0 0 10 10"></path><g><path d="M208 77h0"></path><path d="M360 77h0"></path><g class="terminal"><path d="M208 77h0"></path><path d="M262 77h0"></path><rect x="208" y="66" width="54" height="22" rx="0" ry="0"></rect><text x="235" y="81">NOT</text></g><path d="M262 77h10"></path><path d="M272 77h10"></path><g class="terminal"><path d="M282 77h0"></path><path d="M360 77h0"></path><rect x="282" y="66" width="78" height="22" rx="0" ry="0"></rect><text x="321" y="81">EXISTS</text></g></g><path d="M360 77a10 10 0 0 0 10 -10v-26a10 10 0 0 1 10 -10"></path></g></g><path d="M380 31h20"></path></g><path d="M 400 31 h 20 m 0 -10 v 20"></path></g></svg>