<?xml version="1.0" standalone="no"?>
<?xml-stylesheet href="light.css" type="text/css"?>
<!DOCTYPE svg PUBLIC "-//W3C//DTD SVG 1.1//EN" "http://www.w3.org/Graphics/SVG/1.1/DTD/svg11.dtd">
<svg xmlns="http://www.w3.org/2000/svg" class="railroad-diagram" width="174" height="292" viewBox="0 0 174 292"><g transform="translate(.5 .5)"><path d="M 20 21 v 20 m 0 -10 h 20.5"></path><g><path d="M40 31h0"></path><path d="M134 31h0"></path><path d="M40 31h20"></path><g><path d="M60 31h4"></path><path d="M110 31h4"></path><g class="terminal"><path d="M64 31h0"></path><path d="M110 31h0"></path><rect x="64" y="20" width="46" height="22" rx="0" ry="0"></rect><text x="87" y="35">EQ</text></g></g><path d="M114 31h20"></path><path d="M40 31a10 10 0 0 1 10 10v26a10 10 0 0 0 10 10"></path><g><path d="M60 77h0"></path><path d="M114 77h0"></path><g class="terminal"><path d="M60 77h0"></path><path d="M114 77h0"></path><rect x="60" y="66" width="54" height="22" rx="0" ry="0"></rect><text x="87" y="81">NEQ</text></g></g><path d="M114 77a10 10 0 0 0 10 -10v-26a10 10 0 0 1 10 -10"></path><path d="M40 31a10 10 0 0 1 10 10v72a10 10 0 0 0 10 10"></path><g><path d="M60 123h0"></path><path d="M114 123h0"></path><g class="terminal"><path d="M60 123h0"></path><path d="M114 123h0"></path><rect x="60" y="112" width="54" height="22" rx="0" ry="0"></rect><text x="87" y="127">LTE</text></g></g><path d="M114 123a10 10 0 0 0 10 -10v-72a10 10 0 0 1 10 -10"></path><path d="M40 31a10 10 0 0 1 10 10v118a10 10 0 0 0 10 10"></path><g><path d="M60 169h4"></path><path d="M110 169h4"></path><g class="terminal"><path d="M64 169h0"></path><path d="M110 169h0"></path><rect x="64" y="158" width="46" height="22" rx="0" ry="0"></rect><text x="87" y="173">LT</text></g></g><path d="M114 169a10 10 0 0 0 10 -10v-118a10 10 0 0 1 10 -10"></path><path d="M40 31a10 10 0 0 1 10 10v164a10 10 0 0 0 10 10"></path><g><path d="M60 215h0"></path><path d="M114 215h0"></path><g class="terminal"><path d="M60 215h0"></path><path d="M114 215h0"></path><rect x="60" y="204" width="54" height="22" rx="0" ry="0"></rect><text x="87" y="219">GTE</text></g></g><path d="M114 215a10 10 0 0 0 10 -10v-164a10 10 0 0 1 10 -10"></path><path d="M40 31a10 10 0 0 1 10 10v210a10 10 0 0 0 10 10"></path><g><path d="M60 261h4"></path><path d="M110 261h4"></path><g class="terminal"><path d="M64 261h0"></path><path d="M110 261h0"></path><rect x="64" y="250" width="46" height="22" rx="0" ry="0"></rect><text x="87" y="265">GT</text></g></g><path d="M114 261a10 10 0 0 0 10 -10v-210a10 10 0 0 1 10 -10"></path></g><path d="M 134 31 h 20 m 0 -10 v 20"></path></g></svg>