<?xml version="1.0" standalone="no"?>
<?xml-stylesheet href="light.css" type="text/css"?>
<!DOCTYPE svg PUBLIC "-//W3C//DTD SVG 1.1//EN" "http://www.w3.org/Graphics/SVG/1.1/DTD/svg11.dtd">
<svg xmlns="http://www.w3.org/2000/svg" class="railroad-diagram" width="1038" height="86" viewBox="0 0 1038 86"><g transform="translate(.5 .5)"><path d="M 20 45 v 20 m 0 -10 h 20.5"></path><g><path d="M40 55h0"></path><path d="M998 55h0"></path><path d="M40 55h20"></path><g><path d="M60 55h0"></path><path d="M978 55h0"></path><g class="terminal"><path d="M60 55h0"></path><path d="M122 55h0"></path><rect x="60" y="44" width="62" height="22" rx="0" ry="0"></rect><text x="91" y="59">WITH</text></g><path d="M122 55h10"></path><path d="M132 55h10"></path><g class="non-terminal"><path d="M142 55h0"></path><path d="M252 55h0"></path><rect x="142" y="44" width="110" height="22" rx="8" ry="8"></rect><text x="197" y="59">index_name</text></g><path d="M252 55h10"></path><path d="M262 55h10"></path><g class="terminal"><path d="M272 55h0"></path><path d="M374 55h0"></path><rect x="272" y="44" width="102" height="22" rx="0" ry="0"></rect><text x="323" y="59">OPEN_PARA</text></g><path d="M374 55h10"></path><path d="M384 55h10"></path><g class="non-terminal"><path d="M394 55h0"></path><path d="M528 55h0"></path><rect x="394" y="44" width="134" height="22" rx="8" ry="8"></rect><text x="461" y="59">key_statement</text></g><path d="M528 55h10"></path><g><path d="M538 55h0"></path><path d="M858 55h0"></path><path d="M538 55a10 10 0 0 0 10 -10v-15a10 10 0 0 1 10 -10"></path><g><path d="M558 20h280"></path></g><path d="M838 20a10 10 0 0 1 10 10v15a10 10 0 0 0 10 10"></path><path d="M538 55h20"></path><g><path d="M558 55h0"></path><path d="M838 55h0"></path><path d="M558 55h20"></path><g><path d="M578 55h0"></path><path d="M818 55h0"></path><g class="terminal"><path d="M578 55h0"></path><path d="M632 55h0"></path><rect x="578" y="44" width="54" height="22" rx="0" ry="0"></rect><text x="605" y="59">AND</text></g><path d="M632 55h10"></path><path d="M642 55h10"></path><g class="non-terminal"><path d="M652 55h0"></path><path d="M818 55h0"></path><rect x="652" y="44" width="166" height="22" rx="8" ry="8"></rect><text x="735" y="59">sortkey_statement</text></g></g><path d="M818 55h20"></path></g><path d="M838 55h20"></path></g><path d="M858 55h10"></path><g class="terminal"><path d="M868 55h0"></path><path d="M978 55h0"></path><rect x="868" y="44" width="110" height="22" rx="0" ry="0"></rect><text x="923" y="59">CLOSE_PARA</text></g></g><path d="M978 55h20"></path></g><path d="M 998 55 h 20 m 0 -10 v 20"></path></g></svg>