<?xml version="1.0" standalone="no"?>
<?xml-stylesheet href="light.css" type="text/css"?>
<!DOCTYPE svg PUBLIC "-//W3C//DTD SVG 1.1//EN" "http://www.w3.org/Graphics/SVG/1.1/DTD/svg11.dtd">
<svg xmlns="http://www.w3.org/2000/svg" class="railroad-diagram" width="558" height="132" viewBox="0 0 558 132"><g transform="translate(.5 .5)"><path d="M 20 45 v 20 m 0 -10 h 20.5"></path><g><path d="M40 55h0"></path><path d="M518 55h0"></path><path d="M40 55h20"></path><g><path d="M60 55h0"></path><path d="M498 55h0"></path><g class="terminal"><path d="M60 55h0"></path><path d="M170 55h0"></path><rect x="60" y="44" width="110" height="22" rx="0" ry="0"></rect><text x="115" y="59">IDENTIFIER</text></g><path d="M170 55h10"></path><g><path d="M180 55h0"></path><path d="M498 55h0"></path><path d="M180 55a10 10 0 0 0 10 -10v-15a10 10 0 0 1 10 -10"></path><g><path d="M200 20h278"></path></g><path d="M478 20a10 10 0 0 1 10 10v15a10 10 0 0 0 10 10"></path><path d="M180 55h20"></path><g><path d="M200 55h0"></path><path d="M478 55h0"></path><path d="M200 55h20"></path><g><path d="M220 55h0"></path><path d="M458 55h0"></path><g class="terminal"><path d="M220 55h0"></path><path d="M298 55h0"></path><rect x="220" y="44" width="78" height="22" rx="0" ry="0"></rect><text x="259" y="59">COLUMN</text></g><path d="M298 55h10"></path><g><path d="M308 55h0"></path><path d="M458 55h0"></path><path d="M308 55h20"></path><g><path d="M328 55h4"></path><path d="M434 55h4"></path><g class="terminal"><path d="M332 55h0"></path><path d="M434 55h0"></path><rect x="332" y="44" width="102" height="22" rx="0" ry="0"></rect><text x="383" y="59">ASCENDING</text></g></g><path d="M438 55h20"></path><path d="M308 55a10 10 0 0 1 10 10v26a10 10 0 0 0 10 10"></path><g><path d="M328 101h0"></path><path d="M438 101h0"></path><g class="terminal"><path d="M328 101h0"></path><path d="M438 101h0"></path><rect x="328" y="90" width="110" height="22" rx="0" ry="0"></rect><text x="383" y="105">DESCENDING</text></g></g><path d="M438 101a10 10 0 0 0 10 -10v-26a10 10 0 0 1 10 -10"></path></g></g><path d="M458 55h20"></path></g><path d="M478 55h20"></path></g></g><path d="M498 55h20"></path></g><path d="M 518 55 h 20 m 0 -10 v 20"></path></g></svg>