<?xml version="1.0" standalone="no"?>
<?xml-stylesheet href="light.css" type="text/css"?>
<!DOCTYPE svg PUBLIC "-//W3C//DTD SVG 1.1//EN" "http://www.w3.org/Graphics/SVG/1.1/DTD/svg11.dtd">
<svg xmlns="http://www.w3.org/2000/svg" class="railroad-diagram" width="974" height="86" viewBox="0 0 974 86"><g transform="translate(.5 .5)"><path d="M 20 45 v 20 m 0 -10 h 20.5"></path><g><path d="M40 55h0"></path><path d="M934 55h0"></path><path d="M40 55h20"></path><g><path d="M60 55h0"></path><path d="M914 55h0"></path><g class="terminal"><path d="M60 55h0"></path><path d="M122 55h0"></path><rect x="60" y="44" width="62" height="22" rx="0" ry="0"></rect><text x="91" y="59">WITH</text></g><path d="M122 55h10"></path><path d="M132 55h10"></path><g class="non-terminal"><path d="M142 55h0"></path><path d="M316 55h0"></path><rect x="142" y="44" width="174" height="22" rx="8" ry="8"></rect><text x="229" y="59">partition_key_name</text></g><path d="M316 55h10"></path><path d="M326 55h10"></path><g class="terminal"><path d="M336 55h0"></path><path d="M382 55h0"></path><rect x="336" y="44" width="46" height="22" rx="0" ry="0"></rect><text x="359" y="59">EQ</text></g><path d="M382 55h10"></path><path d="M392 55h10"></path><g class="non-terminal"><path d="M402 55h0"></path><path d="M584 55h0"></path><rect x="402" y="44" width="182" height="22" rx="8" ry="8"></rect><text x="493" y="59">partition_key_value</text></g><path d="M584 55h10"></path><g><path d="M594 55h0"></path><path d="M914 55h0"></path><path d="M594 55a10 10 0 0 0 10 -10v-15a10 10 0 0 1 10 -10"></path><g><path d="M614 20h280"></path></g><path d="M894 20a10 10 0 0 1 10 10v15a10 10 0 0 0 10 10"></path><path d="M594 55h20"></path><g><path d="M614 55h0"></path><path d="M894 55h0"></path><path d="M614 55h20"></path><g><path d="M634 55h0"></path><path d="M874 55h0"></path><g class="terminal"><path d="M634 55h0"></path><path d="M688 55h0"></path><rect x="634" y="44" width="54" height="22" rx="0" ry="0"></rect><text x="661" y="59">AND</text></g><path d="M688 55h10"></path><path d="M698 55h10"></path><g class="non-terminal"><path d="M708 55h0"></path><path d="M874 55h0"></path><rect x="708" y="44" width="166" height="22" rx="8" ry="8"></rect><text x="791" y="59">sortkey_statement</text></g></g><path d="M874 55h20"></path></g><path d="M894 55h20"></path></g></g><path d="M914 55h20"></path></g><path d="M 934 55 h 20 m 0 -10 v 20"></path></g></svg>