<?xml version="1.0" standalone="no"?>
<?xml-stylesheet href="light.css" type="text/css"?>
<!DOCTYPE svg PUBLIC "-//W3C//DTD SVG 1.1//EN" "http://www.w3.org/Graphics/SVG/1.1/DTD/svg11.dtd">
<svg xmlns="http://www.w3.org/2000/svg" class="railroad-diagram" width="686" height="110" viewBox="0 0 686 110"><g transform="translate(.5 .5)"><path d="M 20 45 v 20 m 0 -10 h 20.5"></path><g><path d="M40 55h0"></path><path d="M646 55h0"></path><path d="M40 55h20"></path><g><path d="M60 55h0"></path><path d="M626 55h0"></path><g class="terminal"><path d="M60 55h0"></path><path d="M138 55h0"></path><rect x="60" y="44" width="78" height="22" rx="0" ry="0"></rect><text x="99" y="59">SELECT</text></g><path d="M138 55h10"></path><path d="M148 55h10"></path><g class="non-terminal"><path d="M158 55h0"></path><path d="M292 55h0"></path><rect x="158" y="44" width="134" height="22" rx="8" ry="8"></rect><text x="225" y="59">output_column</text></g><path d="M292 55h10"></path><g><path d="M302 55h0"></path><path d="M626 55h0"></path><path d="M302 55a10 10 0 0 0 10 -10v-15a10 10 0 0 1 10 -10"></path><g><path d="M322 20h284"></path></g><path d="M606 20a10 10 0 0 1 10 10v15a10 10 0 0 0 10 10"></path><path d="M302 55h20"></path><g><path d="M322 55h0"></path><path d="M606 55h0"></path><path d="M322 55h10"></path><g><path d="M332 55h0"></path><path d="M596 55h0"></path><path d="M332 55h20"></path><g><path d="M352 55h0"></path><path d="M576 55h0"></path><g class="terminal"><path d="M352 55h0"></path><path d="M422 55h0"></path><rect x="352" y="44" width="70" height="22" rx="0" ry="0"></rect><text x="387" y="59">COMMA</text></g><path d="M422 55h10"></path><path d="M432 55h10"></path><g class="non-terminal"><path d="M442 55h0"></path><path d="M576 55h0"></path><rect x="442" y="44" width="134" height="22" rx="8" ry="8"></rect><text x="509" y="59">output_column</text></g></g><path d="M576 55h20"></path></g><path d="M596 55h10"></path><path d="M332 55a10 10 0 0 0 -10 10v15a10 10 0 0 0 10 10"></path><g><path d="M332 90h264"></path></g><path d="M596 90a10 10 0 0 0 10 -10v-15a10 10 0 0 0 -10 -10"></path></g><path d="M606 55h20"></path></g></g><path d="M626 55h20"></path></g><path d="M 646 55 h 20 m 0 -10 v 20"></path></g></svg>