<?xml version="1.0" standalone="no"?>
<?xml-stylesheet href="light.css" type="text/css"?>
<!DOCTYPE svg PUBLIC "-//W3C//DTD SVG 1.1//EN" "http://www.w3.org/Graphics/SVG/1.1/DTD/svg11.dtd">
<svg xmlns="http://www.w3.org/2000/svg" class="railroad-diagram" width="522" height="62" viewBox="0 0 522 62"><g transform="translate(.5 .5)"><path d="M 20 21 v 20 m 0 -10 h 20.5"></path><g><path d="M40 31h0"></path><path d="M482 31h0"></path><path d="M40 31h20"></path><g><path d="M60 31h0"></path><path d="M462 31h0"></path><g class="non-terminal"><path d="M60 31h0"></path><path d="M186 31h0"></path><rect x="60" y="20" width="126" height="22" rx="8" ry="8"></rect><text x="123" y="35">sortkey_name</text></g><path d="M186 31h10"></path><path d="M196 31h10"></path><g class="non-terminal"><path d="M206 31h0"></path><path d="M372 31h0"></path><rect x="206" y="20" width="166" height="22" rx="8" ry="8"></rect><text x="289" y="35">sortkey_condition</text></g><path d="M372 31h10"></path><path d="M382 31h10"></path><g class="non-terminal"><path d="M392 31h0"></path><path d="M462 31h0"></path><rect x="392" y="20" width="70" height="22" rx="8" ry="8"></rect><text x="427" y="35">value</text></g></g><path d="M462 31h20"></path></g><path d="M 482 31 h 20 m 0 -10 v 20"></path></g></svg>