<?xml version="1.0" standalone="no"?>
<?xml-stylesheet href="light.css" type="text/css"?>
<!DOCTYPE svg PUBLIC "-//W3C//DTD SVG 1.1//EN" "http://www.w3.org/Graphics/SVG/1.1/DTD/svg11.dtd">
<svg xmlns="http://www.w3.org/2000/svg" class="railroad-diagram" width="506" height="62" viewBox="0 0 506 62"><g transform="translate(.5 .5)"><path d="M 20 21 v 20 m 0 -10 h 20.5"></path><g><path d="M40 31h0"></path><path d="M466 31h0"></path><path d="M40 31h20"></path><g><path d="M60 31h0"></path><path d="M446 31h0"></path><g class="non-terminal"><path d="M60 31h0"></path><path d="M178 31h0"></path><rect x="60" y="20" width="118" height="22" rx="8" ry="8"></rect><text x="119" y="35">filter_name</text></g><path d="M178 31h10"></path><path d="M188 31h10"></path><g class="non-terminal"><path d="M198 31h0"></path><path d="M356 31h0"></path><rect x="198" y="20" width="158" height="22" rx="8" ry="8"></rect><text x="277" y="35">filter_condition</text></g><path d="M356 31h10"></path><path d="M366 31h10"></path><g class="non-terminal"><path d="M376 31h0"></path><path d="M446 31h0"></path><rect x="376" y="20" width="70" height="22" rx="8" ry="8"></rect><text x="411" y="35">value</text></g></g><path d="M446 31h20"></path></g><path d="M 466 31 h 20 m 0 -10 v 20"></path></g></svg>