<?xml version="1.0" standalone="no"?>
<?xml-stylesheet href="light.css" type="text/css"?>
<!DOCTYPE svg PUBLIC "-//W3C//DTD SVG 1.1//EN" "http://www.w3.org/Graphics/SVG/1.1/DTD/svg11.dtd">
<svg xmlns="http://www.w3.org/2000/svg" class="railroad-diagram" width="374" height="154" viewBox="0 0 374 154"><g transform="translate(.5 .5)"><path d="M 20 21 v 20 m 0 -10 h 20.5"></path><g><path d="M40 31h0"></path><path d="M334 31h0"></path><path d="M40 31h20"></path><g><path d="M60 31h16"></path><path d="M298 31h16"></path><g class="non-terminal"><path d="M76 31h0"></path><path d="M298 31h0"></path><rect x="76" y="20" width="222" height="22" rx="8" ry="8"></rect><text x="187" y="35">simple_sortkey_statement</text></g></g><path d="M314 31h20"></path><path d="M40 31a10 10 0 0 1 10 10v26a10 10 0 0 0 10 10"></path><g><path d="M60 77h12"></path><path d="M302 77h12"></path><g class="non-terminal"><path d="M72 77h0"></path><path d="M302 77h0"></path><rect x="72" y="66" width="230" height="22" rx="8" ry="8"></rect><text x="187" y="81">between_sortkey_statement</text></g></g><path d="M314 77a10 10 0 0 0 10 -10v-26a10 10 0 0 1 10 -10"></path><path d="M40 31a10 10 0 0 1 10 10v72a10 10 0 0 0 10 10"></path><g><path d="M60 123h0"></path><path d="M314 123h0"></path><g class="non-terminal"><path d="M60 123h0"></path><path d="M314 123h0"></path><rect x="60" y="112" width="254" height="22" rx="8" ry="8"></rect><text x="187" y="127">beginswith_sortkey_statement</text></g></g><path d="M314 123a10 10 0 0 0 10 -10v-72a10 10 0 0 1 10 -10"></path></g><path d="M 334 31 h 20 m 0 -10 v 20"></path></g></svg>