<?xml version="1.0" standalone="no"?>
<?xml-stylesheet href="light.css" type="text/css"?>

<!DOCTYPE svg PUBLIC "-//W3C//DTD SVG 1.1//EN" "http://www.w3.org/Graphics/SVG/1.1/DTD/svg11.dtd">
<svg xmlns="http://www.w3.org/2000/svg" class="railroad-diagram" width="266" height="86" viewBox="0 0 266 86">
	<g transform="translate(.5 .5)">
		<path d="M 20 21 v 20 m 0 -10 h 20.5"></path>
		<g>
			<path d="M40 31h0"></path><path d="M226 31h0"></path><path d="M40 31h20"></path>
			<g>
				<path d="M60 31h0"></path><path d="M206 31h0"></path>
				<g>
					<path d="M60 31h0"></path><path d="M206 31h0"></path><path d="M60 31h10"></path>
					<g class="non-terminal">
						<path d="M70 31h0"></path><path d="M196 31h0"></path>
						<rect x="70" y="20" width="126" height="22" rx="8" ry="8"></rect><text x="133" y="35">dynamo_query</text>
					</g>
					<path d="M196 31h10"></path><path d="M70 31a10 10 0 0 0 -10 10v15a10 10 0 0 0 10 10"></path>
					<g>
						<path d="M70 66h126"></path>
					</g>
					<path d="M196 66a10 10 0 0 0 10 -10v-15a10 10 0 0 0 -10 -10"></path>
				</g>
			</g>
			<path d="M206 31h20"></path>
		</g>
		<path d="M 226 31 h 20 m 0 -10 v 20"></path>
	</g>
</svg>