<?xml version="1.0" standalone="no"?>
<?xml-stylesheet href="light.css" type="text/css"?>
<!DOCTYPE svg PUBLIC "-//W3C//DTD SVG 1.1//EN" "http://www.w3.org/Graphics/SVG/1.1/DTD/svg11.dtd">
<svg xmlns="http://www.w3.org/2000/svg" class="railroad-diagram" width="374" height="246" viewBox="0 0 374 246"><g transform="translate(.5 .5)"><path d="M 20 21 v 20 m 0 -10 h 20.5"></path><g><path d="M40 31h0"></path><path d="M334 31h0"></path><path d="M40 31h20"></path><g><path d="M60 31h16"></path><path d="M298 31h16"></path><g class="non-terminal"><path d="M76 31h0"></path><path d="M298 31h0"></path><rect x="76" y="20" width="222" height="22" rx="8" ry="8"></rect><text x="187" y="35">between_filter_statement</text></g></g><path d="M314 31h20"></path><path d="M40 31a10 10 0 0 1 10 10v26a10 10 0 0 0 10 10"></path><g><path d="M60 77h20"></path><path d="M294 77h20"></path><g class="non-terminal"><path d="M80 77h0"></path><path d="M294 77h0"></path><rect x="80" y="66" width="214" height="22" rx="8" ry="8"></rect><text x="187" y="81">exists_filter_statement</text></g></g><path d="M314 77a10 10 0 0 0 10 -10v-26a10 10 0 0 1 10 -10"></path><path d="M40 31a10 10 0 0 1 10 10v72a10 10 0 0 0 10 10"></path><g><path d="M60 123h12"></path><path d="M302 123h12"></path><g class="non-terminal"><path d="M72 123h0"></path><path d="M302 123h0"></path><rect x="72" y="112" width="230" height="22" rx="8" ry="8"></rect><text x="187" y="127">contains_filter_statement</text></g></g><path d="M314 123a10 10 0 0 0 10 -10v-72a10 10 0 0 1 10 -10"></path><path d="M40 31a10 10 0 0 1 10 10v118a10 10 0 0 0 10 10"></path><g><path d="M60 169h0"></path><path d="M314 169h0"></path><g class="non-terminal"><path d="M60 169h0"></path><path d="M314 169h0"></path><rect x="60" y="158" width="254" height="22" rx="8" ry="8"></rect><text x="187" y="173">begins_with_filter_statement</text></g></g><path d="M314 169a10 10 0 0 0 10 -10v-118a10 10 0 0 1 10 -10"></path><path d="M40 31a10 10 0 0 1 10 10v164a10 10 0 0 0 10 10"></path><g><path d="M60 215h20"></path><path d="M294 215h20"></path><g class="non-terminal"><path d="M80 215h0"></path><path d="M294 215h0"></path><rect x="80" y="204" width="214" height="22" rx="8" ry="8"></rect><text x="187" y="219">simple_filter_statement</text></g></g><path d="M314 215a10 10 0 0 0 10 -10v-164a10 10 0 0 1 10 -10"></path></g><path d="M 334 31 h 20 m 0 -10 v 20"></path></g></svg>